<?xml version="1.0" encoding="UTF-8" ?>
<!DOCTYPE svg PUBLIC "-//W3C//DTD SVG 1.1//EN" "http://www.w3.org/Graphics/SVG/1.1/DTD/svg11.dtd">
<svg width="137pt" height="132pt" viewBox="0 0 137 132" version="1.1" xmlns="http://www.w3.org/2000/svg">
<g id="#ffffffff">
</g>
<g id="#3864caff">
<path fill="#3864ca" opacity="1.00" d=" M 70.52 4.68 C 90.37 15.80 109.79 27.68 129.53 38.99 C 109.78 50.15 90.25 61.68 70.62 73.03 C 70.62 50.25 70.28 27.47 70.52 4.68 Z" />
<path fill="#3864ca" opacity="1.00" d=" M 10.10 51.05 C 18.07 30.29 39.62 15.85 61.86 16.25 C 61.77 24.10 61.99 31.96 61.82 39.81 C 49.53 39.72 37.65 47.34 32.54 58.49 C 26.56 70.84 29.81 86.85 40.08 95.94 C 44.43 100.22 50.13 102.59 55.90 104.23 C 64.87 105.19 74.40 103.26 81.46 97.42 C 89.13 91.50 94.12 82.04 93.89 72.27 C 101.69 72.23 109.50 72.15 117.31 72.11 C 117.13 85.84 111.97 99.49 102.53 109.52 C 92.17 121.10 76.55 127.94 60.97 127.21 C 39.92 127.47 19.61 114.09 10.99 94.97 C 4.59 81.30 4.41 64.99 10.10 51.05 Z" />
</g>
</svg>
